<?xml version="1.0" encoding="utf-8" standalone="no"?>
<!DOCTYPE svg PUBLIC "-//W3C//DTD SVG 1.1//EN"
  "http://www.w3.org/Graphics/SVG/1.1/DTD/svg11.dtd">
<svg xmlns:xlink="http://www.w3.org/1999/xlink" width="72pt" height="72pt" viewBox="0 0 72 72" xmlns="http://www.w3.org/2000/svg" version="1.1">
<defs>
  <style type="text/css">*{stroke-linejoin: round; stroke-linecap: butt}</style>
 </defs>
 <g id="figure_1">
  <g id="patch_1">
   <path d="M 0 72
L 72 72
L 72 0
L 0 0
L 0 72
z
" style="fill: none"/>
  </g>
  <g id="axes_1">
   <g id="patch_2">
    <path d="M 36 55.8
C 41.251021 55.8 46.287681 53.713747 50.000714 50.000714
C 53.713747 46.287681 55.8 41.251021 55.8 36
C 55.8 30.748979 53.713747 25.712319 50.000714 21.999286
C 46.287681 18.286253 41.251021 16.2 36 16.2
C 30.748979 16.2 25.712319 18.286253 21.999286 21.999286
C 18.286253 25.712319 16.2 30.748979 16.2 36
C 16.2 41.251021 18.286253 46.287681 21.999286 50.000714
C 25.712319 53.713747 30.748979 55.8 36 55.8
z
" clip-path="url(#pe217483c96)" style="fill: #ff7f00; stroke: #000000; stroke-width: 1.5; stroke-linejoin: miter"/>
   </g>
  </g>
 </g>
 <defs>
  <clipPath id="pe217483c96">
   <rect x="0" y="0" width="72" height="72"/>
  </clipPath>
 </defs>
</svg>
